<?xml version="1.0" encoding="utf-8"?>
<svg viewBox="0 0 256 256" width="256" height="256" xmlns="http://www.w3.org/2000/svg">
  <path fill="#FDFDFF" opacity="1.000000" stroke="none" d=" M257.000000,151.000000 C257.000000,156.354935 257.000000,161.709854 256.699036,167.242523 C247.710236,178.683090 239.038284,189.958237 230.330750,201.205826 C217.236816,218.119308 204.138641,235.029617 190.980530,251.893097 C189.526672,253.756378 187.669907,255.305283 186.000000,257.000000 C147.979111,257.000000 109.958214,257.000000 71.756378,256.712311 C69.519501,254.582779 67.153282,252.987122 65.462166,250.855789 C58.706821,242.342056 52.169533,233.655472 45.536510,225.044434 C33.258633,209.105255 21.012100,193.141541 8.648526,177.269043 C6.349537,174.317566 3.562041,171.746582 1.000000,169.000000 C1.000000,162.645599 1.000000,156.291214 1.345583,149.766632 C2.121679,148.940521 2.787225,148.337372 2.948080,147.620911 C6.331203,132.552124 9.685197,117.476662 12.986017,102.389626 C15.703194,89.970268 18.464830,77.558609 20.981285,65.097992 C23.067265,54.768932 27.279743,46.377155 38.223564,42.902466 C41.707748,41.796230 44.959812,39.918297 48.257721,38.272495 C71.713158,26.567226 95.157516,14.839673 118.574074,3.056956 C119.228653,2.727585 119.532570,1.701308 120.000000,0.999999 C125.354927,1.000000 130.709854,1.000000 136.241699,1.307374 C145.115463,6.051472 153.787201,10.538263 162.514160,14.914999 C183.793198,25.586834 205.188171,36.034245 226.296326,47.032890 C229.524216,48.714825 232.694778,52.466961 233.776031,55.923473 C236.500259,64.632317 238.018890,73.718536 240.015778,82.654610 C244.789276,104.015968 249.526169,125.385689 254.402039,146.723648 C254.754562,148.266418 256.110565,149.579895 257.000000,151.000000 M220.619247,202.122803 C229.005005,191.354919 237.421585,180.610840 245.761581,169.807617 C249.166382,165.397217 250.513031,160.616058 249.217972,154.878250 C242.320694,124.319542 235.672882,93.704605 228.868134,63.124832 C227.661346,57.701641 224.818832,53.430122 219.596863,50.865269 C191.725586,37.175827 163.892853,23.407948 136.041977,9.676947 C131.081131,7.231159 126.172562,7.383533 121.207550,9.838334 C93.680359,23.448347 66.138176,37.028133 38.579071,50.573410 C33.290092,53.172943 30.149141,57.176567 28.869913,63.001362 C22.291977,92.953171 15.665847,122.895302 8.821349,152.786957 C7.344491,159.236771 7.880092,164.896301 11.996950,170.171539 C31.046844,194.581650 50.049133,219.028946 69.101822,243.436874 C72.449272,247.725220 76.750244,250.085800 82.397049,250.072968 C113.394989,250.002548 144.393188,250.025314 175.391251,250.048874 C180.780762,250.052963 184.999756,247.859665 188.269547,243.658951 C198.902084,229.999237 209.540176,216.343826 220.619247,202.122803 z"/>
  <path opacity="1.000000" stroke="none" d=" M257.000000,150.531342 C256.110565,149.579895 254.754562,148.266418 254.402039,146.723648 C249.526169,125.385689 244.789276,104.015968 240.015778,82.654610 C238.018890,73.718536 236.500259,64.632317 233.776031,55.923473 C232.694778,52.466961 229.524216,48.714825 226.296326,47.032890 C205.188171,36.034245 183.793198,25.586834 162.514160,14.914999 C153.787201,10.538263 145.115463,6.051472 136.709290,1.307374 C176.935104,1.000000 216.870193,1.000000 257.000000,1.000000 C257.000000,50.687393 257.000000,100.375038 257.000000,150.531342 z" style="fill: rgb(50, 109, 230);"/>
  <path opacity="1.000000" stroke="none" d=" M119.531342,0.999999 C119.532570,1.701308 119.228653,2.727585 118.574074,3.056956 C95.157516,14.839673 71.713158,26.567226 48.257721,38.272495 C44.959812,39.918297 41.707748,41.796230 38.223564,42.902466 C27.279743,46.377155 23.067265,54.768932 20.981285,65.097992 C18.464830,77.558609 15.703194,89.970268 12.986017,102.389626 C9.685197,117.476662 6.331203,132.552124 2.948080,147.620911 C2.787225,148.337372 2.121679,148.940521 1.345583,149.298218 C1.000000,99.747620 1.000000,50.495243 1.000000,1.000000 C40.353893,1.000000 79.708290,1.000000 119.531342,0.999999 z" style="fill: rgb(50, 109, 230);"/>
  <path opacity="1.000000" stroke="none" d=" M186.468658,257.000000 C187.669907,255.305283 189.526672,253.756378 190.980530,251.893097 C204.138641,235.029617 217.236816,218.119308 230.330750,201.205826 C239.038284,189.958237 247.710236,178.683090 256.699036,167.710129 C257.000000,197.585327 257.000000,227.170654 257.000000,257.000000 C233.646332,257.000000 210.291824,257.000000 186.468658,257.000000 z" style="fill: rgb(50, 109, 230);"/>
  <path opacity="1.000000" stroke="none" d=" M1.000000,169.468658 C3.562041,171.746582 6.349537,174.317566 8.648526,177.269043 C21.012100,193.141541 33.258633,209.105255 45.536510,225.044434 C52.169533,233.655472 58.706821,242.342056 65.462166,250.855789 C67.153282,252.987122 69.519501,254.582779 71.287720,256.712311 C47.731453,257.000000 24.462904,257.000000 1.000000,257.000000 C1.000000,227.979401 1.000000,198.958359 1.000000,169.468658 z" style="fill: rgb(50, 109, 230);"/>
  <path fill="#336DE5" opacity="1.000000" stroke="none" d=" M220.397690,202.404785 C209.540176,216.343826 198.902084,229.999237 188.269547,243.658951 C184.999756,247.859665 180.780762,250.052963 175.391251,250.048874 C144.393188,250.025314 113.394989,250.002548 82.397049,250.072968 C76.750244,250.085800 72.449272,247.725220 69.101822,243.436874 C50.049133,219.028946 31.046844,194.581650 11.996950,170.171539 C7.880092,164.896301 7.344491,159.236771 8.821349,152.786957 C15.665847,122.895302 22.291977,92.953171 28.869913,63.001362 C30.149141,57.176567 33.290092,53.172943 38.579071,50.573410 C66.138176,37.028133 93.680359,23.448347 121.207550,9.838334 C126.172562,7.383533 131.081131,7.231159 136.041977,9.676947 C163.892853,23.407948 191.725586,37.175827 219.596863,50.865269 C224.818832,53.430122 227.661346,57.701641 228.868134,63.124832 C235.672882,93.704605 242.320694,124.319542 249.217972,154.878250 C250.513031,160.616058 249.166382,165.397217 245.761581,169.807617 C237.421585,180.610840 229.005005,191.354919 220.397690,202.404785 M97.094421,168.469070 C107.656166,173.284103 118.592110,175.052963 130.165558,173.170319 C142.140121,171.222412 141.795700,171.377701 142.386551,159.108932 C142.614426,154.376724 143.621826,148.349167 146.677826,145.417206 C150.663544,141.593262 151.047272,137.950943 151.010605,133.344696 C150.922821,122.320847 157.508774,113.683693 168.223740,111.493393 C172.132080,110.694481 176.340775,111.364769 180.927872,111.364769 C180.640579,108.629311 180.404129,105.692314 180.014801,102.775711 C175.528915,69.168877 142.067566,45.293995 109.584656,52.503170 C83.840164,58.216835 65.355904,78.912308 62.331482,106.620682 C59.646957,131.214996 72.489517,156.728973 97.094421,168.469070 M195.696930,154.159210 C195.078964,152.480103 194.921356,149.847839 193.762680,149.288208 C188.954437,146.965851 189.430801,142.952591 189.495972,138.853699 C189.522171,137.204681 189.304642,135.521317 188.965408,133.902328 C187.625351,127.506897 182.103012,122.479271 175.911514,121.899887 C168.771423,121.231743 162.400848,124.794167 160.118744,131.419647 C159.069580,134.465591 159.083054,137.915894 158.868454,141.199448 C158.679459,144.091339 159.349564,146.843857 155.466629,148.435608 C153.935333,149.063339 152.922287,152.554230 152.825836,154.791077 C152.503693,162.261551 152.643494,169.755142 152.721756,177.238678 C152.783066,183.100250 154.707336,185.023010 160.507080,185.060974 C169.487915,185.119751 178.469589,185.110275 187.450592,185.064514 C193.413498,185.034134 195.589081,182.958801 195.680176,176.998795 C195.791992,169.682480 195.706055,162.363144 195.696930,154.159210 z"/>
  <path fill="#FCFDFF" opacity="1.000000" stroke="none" d=" M96.758759,168.294662 C72.489517,156.728973 59.646957,131.214996 62.331482,106.620682 C65.355904,78.912308 83.840164,58.216835 109.584656,52.503170 C142.067566,45.293995 175.528915,69.168877 180.014801,102.775711 C180.404129,105.692314 180.640579,108.629311 180.927872,111.364769 C176.340775,111.364769 172.132080,110.694481 168.223740,111.493393 C157.508774,113.683693 150.922821,122.320847 151.010605,133.344696 C151.047272,137.950943 150.663544,141.593262 146.677826,145.417206 C143.621826,148.349167 142.614426,154.376724 142.386551,159.108932 C141.795700,171.377701 142.140121,171.222412 130.165558,173.170319 C118.592110,175.052963 107.656166,173.284103 96.758759,168.294662 M122.385406,96.043297 C122.194855,96.067062 122.004303,96.090836 121.314659,95.617668 C119.775703,95.334091 118.158951,94.667679 116.736374,94.956764 C116.173210,95.071220 115.561363,97.405922 115.793655,98.564964 C117.049446,104.830750 115.085060,106.776123 108.856926,105.214531 C107.922523,104.980240 106.904457,105.079674 106.367668,104.446808 C107.157669,103.048164 108.339165,101.702896 108.540794,100.224045 C108.619064,99.649933 106.546997,98.282990 105.344574,98.127579 C101.731384,97.660545 100.167542,95.824219 99.894363,92.248032 C99.792084,90.909073 98.835495,88.900040 97.822189,88.571075 C96.791664,88.236534 94.751823,89.243774 93.959976,90.279602 C91.769905,93.144485 89.589340,93.925354 86.281570,92.064369 C85.187035,91.448563 82.869156,91.506393 82.089005,92.263893 C81.341560,92.989639 81.368530,95.254265 81.921402,96.437958 C83.535255,99.893173 82.244522,102.012672 79.566727,104.114166 C78.484032,104.963852 77.265472,106.766945 77.492973,107.843712 C77.721825,108.926849 79.572899,110.177994 80.885841,110.420525 C84.139595,111.021561 85.940880,112.380157 86.073898,115.929337 C86.124611,117.282448 87.187263,119.630585 87.952827,119.699387 C89.355263,119.825424 91.261864,118.949944 92.276688,117.858406 C94.675560,115.278198 96.808830,114.503273 100.039001,116.626007 C103.026756,118.589432 104.605942,116.973686 104.795120,113.703667 C104.847832,112.792488 104.924133,111.882683 105.727081,110.873619 C112.310669,114.019669 112.601974,116.539558 107.218979,121.096252 C106.283760,121.887909 105.583382,124.087776 106.029373,125.063828 C106.479736,126.049408 108.599800,126.990173 109.798973,126.793816 C115.662262,125.833694 117.458611,127.462791 116.765289,133.118820 C116.590622,134.543716 117.717911,136.128189 118.246895,137.639328 C119.605858,136.903488 121.457733,136.506180 122.236694,135.372009 C125.276306,130.946274 127.898766,130.786545 131.096451,134.811188 C132.045425,136.005585 134.019363,136.385620 135.523651,137.138824 C136.021240,135.487411 137.160522,133.725189 136.898041,132.205002 C136.055588,127.325546 138.148987,125.129539 143.024445,125.751747 C144.515076,125.941978 146.198380,124.622665 147.793442,123.994659 C146.948807,122.656471 146.396057,120.914284 145.205856,120.054398 C141.338760,117.260490 141.100204,114.182930 144.543884,111.177048 C145.771729,110.105301 147.221909,108.228836 147.086044,106.867874 C146.772888,103.730919 144.287155,104.609039 142.078979,104.990120 C137.466339,105.786148 134.918045,103.478874 136.191925,99.209312 C137.862854,93.609070 134.658646,93.778442 130.746933,93.310486 C132.827469,92.323074 134.906021,91.331497 136.989273,90.349861 C138.201477,89.778664 140.237366,89.441559 140.458817,88.613152 C140.856628,87.125000 140.749344,84.820831 139.819473,83.790192 C137.323578,81.023834 136.474411,78.377968 137.764725,74.758209 C138.185867,73.576752 137.542877,71.356468 136.590363,70.538620 C135.715759,69.787666 133.767776,70.312515 132.295578,70.226349 C129.524750,70.064186 126.750648,69.923027 123.988564,69.660858 C122.561234,69.525375 120.601791,68.455971 119.870216,69.041733 C118.732811,69.952461 117.820435,71.952370 117.909660,73.424110 C118.116142,76.829979 117.702484,79.527351 114.540413,81.580475 C113.477585,82.270569 112.563026,84.355927 112.804855,85.557106 C113.042122,86.735626 114.739098,88.310623 115.963287,88.477043 C120.538239,89.098961 122.728363,91.540253 122.385406,96.043297 z"/>
  <path fill="#FCFDFF" opacity="1.000000" stroke="none" d=" M195.701263,154.602158 C195.706055,162.363144 195.791992,169.682480 195.680176,176.998795 C195.589081,182.958801 193.413498,185.034134 187.450592,185.064514 C178.469589,185.110275 169.487915,185.119751 160.507080,185.060974 C154.707336,185.023010 152.783066,183.100250 152.721756,177.238678 C152.643494,169.755142 152.503693,162.261551 152.825836,154.791077 C152.922287,152.554230 153.935333,149.063339 155.466629,148.435608 C159.349564,146.843857 158.679459,144.091339 158.868454,141.199448 C159.083054,137.915894 159.069580,134.465591 160.118744,131.419647 C162.400848,124.794167 168.771423,121.231743 175.911514,121.899887 C182.103012,122.479271 187.625351,127.506897 188.965408,133.902328 C189.304642,135.521317 189.522171,137.204681 189.495972,138.853699 C189.430801,142.952591 188.954437,146.965851 193.762680,149.288208 C194.921356,149.847839 195.078964,152.480103 195.701263,154.602158 M182.971146,135.252258 C181.415833,130.380615 178.160553,127.588493 172.977921,128.180740 C168.568298,128.684662 165.677353,131.563278 165.140778,135.981506 C164.711792,139.513733 165.054153,143.139648 165.054153,146.742889 C171.331009,146.742889 177.059616,146.742889 183.075195,146.742889 C183.075195,143.007141 183.075195,139.558060 182.971146,135.252258 z"/>
  <path fill="#3971E6" opacity="1.000000" stroke="none" d=" M105.925095,105.024727 C106.904457,105.079674 107.922523,104.980240 108.856926,105.214531 C115.085060,106.776123 117.049446,104.830750 115.793655,98.564964 C115.561363,97.405922 116.173210,95.071220 116.736374,94.956764 C118.158951,94.667679 119.775703,95.334091 121.605125,96.224808 C125.171387,100.971291 126.656113,100.998741 130.020721,96.992447 C130.000397,97.002365 129.993805,97.047096 130.221405,96.848099 C130.571091,96.082420 130.693176,95.515724 130.884933,94.706833 C130.986404,94.299660 131.018234,94.134682 131.024323,93.980209 C130.998611,93.990700 130.970062,94.038338 130.970062,94.038338 C134.658646,93.778442 137.862854,93.609070 136.191925,99.209312 C134.918045,103.478874 137.466339,105.786148 142.078979,104.990120 C144.287155,104.609039 146.772888,103.730919 147.086044,106.867874 C147.221909,108.228836 145.771729,110.105301 144.543884,111.177048 C141.100204,114.182930 141.338760,117.260490 145.205856,120.054398 C146.396057,120.914284 146.948807,122.656471 147.793442,123.994659 C146.198380,124.622665 144.515076,125.941978 143.024445,125.751747 C138.148987,125.129539 136.055588,127.325546 136.898041,132.205002 C137.160522,133.725189 136.021240,135.487411 135.523651,137.138824 C134.019363,136.385620 132.045425,136.005585 131.096451,134.811188 C127.898766,130.786545 125.276306,130.946274 122.236694,135.372009 C121.457733,136.506180 119.605858,136.903488 118.246895,137.639328 C117.717911,136.128189 116.590622,134.543716 116.765289,133.118820 C117.458611,127.462791 115.662262,125.833694 109.798973,126.793816 C108.599800,126.990173 106.479736,126.049408 106.029373,125.063828 C105.583382,124.087776 106.283760,121.887909 107.218979,121.096252 C112.601974,116.539558 112.310669,114.019669 105.364975,110.940292 C105.002869,111.006958 105.030655,111.032196 105.080124,110.599808 C105.092773,108.759972 105.055962,107.352516 105.002258,105.966110 C104.985382,105.987167 104.952957,106.030304 105.300980,106.143890 C105.778130,105.822876 105.907272,105.388283 106.009682,104.973175 C105.982956,104.992668 105.925095,105.024727 105.925095,105.024727 M119.371742,125.141121 C128.042282,130.095642 137.211884,125.988770 137.997360,116.799080 C138.430954,111.726280 135.084137,106.344612 130.390320,104.566948 C125.801582,102.829071 120.071297,104.672997 117.175041,108.819397 C113.647758,113.869225 114.226089,119.266174 119.371742,125.141121 z"/>
  <path fill="#3A72E6" opacity="1.000000" stroke="none" d=" M104.996246,110.989601 C104.924133,111.882683 104.847832,112.792488 104.795120,113.703667 C104.605942,116.973686 103.026756,118.589432 100.039001,116.626007 C96.808830,114.503273 94.675560,115.278198 92.276688,117.858406 C91.261864,118.949944 89.355263,119.825424 87.952827,119.699387 C87.187263,119.630585 86.124611,117.282448 86.073898,115.929337 C85.940880,112.380157 84.139595,111.021561 80.885841,110.420525 C79.572899,110.177994 77.721825,108.926849 77.492973,107.843712 C77.265472,106.766945 78.484032,104.963852 79.566727,104.114166 C82.244522,102.012672 83.535255,99.893173 81.921402,96.437958 C81.368530,95.254265 81.341560,92.989639 82.089005,92.263893 C82.869156,91.506393 85.187035,91.448563 86.281570,92.064369 C89.589340,93.925354 91.769905,93.144485 93.959976,90.279602 C94.751823,89.243774 96.791664,88.236534 97.822189,88.571075 C98.835495,88.900040 99.792084,90.909073 99.894363,92.248032 C100.167542,95.824219 101.731384,97.660545 105.344574,98.127579 C106.546997,98.282990 108.619064,99.649933 108.540794,100.224045 C108.339165,101.702896 107.157669,103.048164 106.146378,104.735764 C105.925095,105.024727 105.982956,104.992668 105.723145,105.022720 C105.293213,105.378624 105.123085,105.704460 104.952957,106.030304 C104.952957,106.030304 104.985382,105.987167 104.637306,106.149841 C104.536369,107.885742 104.783508,109.458969 105.030655,111.032196 C105.030655,111.032196 105.002869,111.006958 104.996246,110.989601 M85.631996,101.451271 C84.197304,105.939720 85.661201,109.811707 89.799500,111.270424 C92.208168,112.119453 96.108604,111.332031 98.251244,109.780441 C102.267708,106.871941 101.768173,101.570633 97.967369,98.170746 C94.028786,94.647614 90.069344,95.502274 85.631996,101.451271 z"/>
  <path fill="#3D74E6" opacity="1.000000" stroke="none" d=" M122.960091,96.003296 C122.728363,91.540253 120.538239,89.098961 115.963287,88.477043 C114.739098,88.310623 113.042122,86.735626 112.804855,85.557106 C112.563026,84.355927 113.477585,82.270569 114.540413,81.580475 C117.702484,79.527351 118.116142,76.829979 117.909660,73.424110 C117.820435,71.952370 118.732811,69.952461 119.870216,69.041733 C120.601791,68.455971 122.561234,69.525375 123.988564,69.660858 C126.750648,69.923027 129.524750,70.064186 132.295578,70.226349 C133.767776,70.312515 135.715759,69.787666 136.590363,70.538620 C137.542877,71.356468 138.185867,73.576752 137.764725,74.758209 C136.474411,78.377968 137.323578,81.023834 139.819473,83.790192 C140.749344,84.820831 140.856628,87.125000 140.458817,88.613152 C140.237366,89.441559 138.201477,89.778664 136.989273,90.349861 C134.906021,91.331497 132.827469,92.323074 130.858490,93.674408 C130.970062,94.038338 130.998611,93.990700 130.722809,93.915634 C130.322495,94.217804 130.197968,94.595024 129.923996,95.316948 C129.847641,96.123466 129.920731,96.585281 129.993805,97.047096 C129.993805,97.047096 130.000397,97.002365 129.624664,96.842957 C127.152664,96.456802 125.056374,96.230049 122.960091,96.003296 M119.311821,83.241913 C120.005104,87.126945 122.307396,90.053070 126.171234,89.878242 C128.731552,89.762390 131.827209,88.093903 133.552322,86.128067 C135.971100,83.371773 135.345886,79.577469 132.792511,77.058769 C131.204285,75.492111 128.418030,74.088211 126.334396,74.292595 C121.882011,74.729340 119.377876,77.809624 119.311821,83.241913 z"/>
  <path fill="#D1DCF8" opacity="1.000000" stroke="none" d=" M122.672745,96.023300 C125.056374,96.230049 127.152664,96.456802 129.644989,96.833038 C126.656113,100.998741 125.171387,100.971291 121.854675,96.473274 C122.004303,96.090836 122.194855,96.067062 122.672745,96.023300 z"/>
  <path fill="#346EE5" opacity="1.000000" stroke="none" d=" M183.023163,135.680618 C183.075195,139.558060 183.075195,143.007141 183.075195,146.742889 C177.059616,146.742889 171.331009,146.742889 165.054153,146.742889 C165.054153,143.139648 164.711792,139.513733 165.140778,135.981506 C165.677353,131.563278 168.568298,128.684662 172.977921,128.180740 C178.160553,127.588493 181.415833,130.380615 183.023163,135.680618 z"/>
  <path fill="#FBFCFE" opacity="1.000000" stroke="none" d=" M119.118896,124.870407 C114.226089,119.266174 113.647758,113.869225 117.175041,108.819397 C120.071297,104.672997 125.801582,102.829071 130.390320,104.566948 C135.084137,106.344612 138.430954,111.726280 137.997360,116.799080 C137.211884,125.988770 128.042282,130.095642 119.118896,124.870407 z"/>
  <path fill="#FCFDFF" opacity="1.000000" stroke="none" d=" M105.080124,110.599808 C104.783508,109.458969 104.536369,107.885742 104.654190,106.128784 C105.055962,107.352516 105.092773,108.759972 105.080124,110.599808 z"/>
  <path fill="#D1DCF8" opacity="1.000000" stroke="none" d=" M130.221405,96.848099 C129.920731,96.585281 129.847641,96.123466 130.109360,95.311821 C130.444168,94.961990 130.815277,94.949036 130.815277,94.949036 C130.693176,95.515724 130.571091,96.082420 130.221405,96.848099 z"/>
  <path fill="#FCFDFF" opacity="1.000000" stroke="none" d=" M130.884933,94.706833 C130.815277,94.949036 130.444168,94.961990 130.258804,94.967117 C130.197968,94.595024 130.322495,94.217804 130.748535,93.905144 C131.018234,94.134682 130.986404,94.299660 130.884933,94.706833 z"/>
  <path fill="#FCFDFF" opacity="1.000000" stroke="none" d=" M105.300980,106.143890 C105.123085,105.704460 105.293213,105.378624 105.749878,105.003235 C105.907272,105.388283 105.778130,105.822876 105.300980,106.143890 z"/>
  <path fill="#F9FAFE" opacity="1.000000" stroke="none" d=" M85.804016,101.105194 C90.069344,95.502274 94.028786,94.647614 97.967369,98.170746 C101.768173,101.570633 102.267708,106.871941 98.251244,109.780441 C96.108604,111.332031 92.208168,112.119453 89.799500,111.270424 C85.661201,109.811707 84.197304,105.939720 85.804016,101.105194 z"/>
  <path fill="#F8FAFE" opacity="1.000000" stroke="none" d=" M119.281418,82.861771 C119.377876,77.809624 121.882011,74.729340 126.334396,74.292595 C128.418030,74.088211 131.204285,75.492111 132.792511,77.058769 C135.345886,79.577469 135.971100,83.371773 133.552322,86.128067 C131.827209,88.093903 128.731552,89.762390 126.171234,89.878242 C122.307396,90.053070 120.005104,87.126945 119.281418,82.861771 z"/>
</svg>